<svg enable-background="new 0 0 120 60" height="60" viewBox="0 0 120 60" width="120" xmlns="http://www.w3.org/2000/svg" xmlns:xlink="http://www.w3.org/1999/xlink"><linearGradient id="a" gradientTransform="matrix(236.842 0 0 -273.481 118402.2656 281006.9375)" gradientUnits="userSpaceOnUse" x1="-499.7857" x2="-499.7857" y1="1027.4164" y2="1027.3351"><stop offset="0" stop-color="#f7f6f3"/><stop offset="1" stop-color="#fef6d5"/></linearGradient><path d="m14.6 40 17.4 10 17.4-10v-20l-17.4-10-17.4 10zm17.4 11.9-19-10.9v-22l19-11 19 11v22z" fill="#a1070c"/><path d="m14.4 19.9 17.6-10.2 17.6 10.1v20.3l-17.6 10.2-17.6-10.2z" fill="url(#a)"/><path d="m40.1 22.6c0 .8-.2 1.6-.5 2.4s-.7 1.5-1.3 2.2c-.5.7-1.1 1.3-1.8 1.8s-1.4.9-2.2 1.1l-.3-.7c.4-.2.8-.5 1.2-.8s.7-.7.9-1.2c.3-.4.5-.9.6-1.4s.2-1 .2-1.5c0-.6-.1-1.1-.3-1.6s-.4-1-.7-1.3c-.3-.4-.7-.7-1.2-.9s-1-.3-1.6-.3c-.8 0-1.4.1-2.1.4-.6.3-1.2.7-1.7 1.2s-.9 1.1-1.3 1.7-.7 1.3-.9 2-.4 1.4-.6 2.1c-.1.7-.2 1.4-.2 2 0 .7.1 1.3.2 2s.3 1.4.6 2c.3.7.6 1.3 1 1.9s.8 1.1 1.3 1.6 1.1.8 1.7 1.1 1.3.4 2 .4c.5 0 1-.1 1.5-.2s.9-.3 1.4-.6c.4-.2.9-.5 1.3-.8s.8-.7 1.1-1l.5.5c-.5.6-1 1.2-1.6 1.8s-1.3 1.1-2.1 1.5c-.7.4-1.5.8-2.3 1-.8.3-1.6.4-2.4.4s-1.5-.1-2.2-.4-1.3-.6-1.9-1.1-1.1-1-1.5-1.6-.8-1.3-1.1-2-.5-1.4-.7-2.1-.2-1.5-.2-2.2c0-1 .2-2.1.5-3.1.3-1.1.8-2.1 1.4-3.1s1.3-2 2.1-2.9 1.7-1.7 2.6-2.4 1.9-1.2 2.9-1.6 2-.6 3.1-.6c.6 0 1.2.1 1.8.3.5.2 1 .4 1.4.8s.7.8.9 1.3c.4.6.5 1.2.5 1.9z" fill="#a1070c"/><path d="m73.6 35.3c.1 0 .3.1.4.2l1 1.1c-.7.9-1.7 1.5-2.7 2s-2.4.7-3.9.7c-1.3 0-2.5-.2-3.6-.7s-2-1.1-2.7-1.9c-.8-.8-1.3-1.8-1.8-2.9-.4-1.1-.6-2.4-.6-3.8s.2-2.6.6-3.8 1-2.1 1.8-3 1.7-1.5 2.8-1.9c1.1-.5 2.3-.7 3.6-.7s2.4.2 3.4.6 1.9 1 2.6 1.7l-.8 1.1c-.1.1-.1.2-.2.2-.1.1-.2.1-.3.1-.2 0-.3-.1-.6-.2-.2-.2-.5-.3-.9-.6s-.8-.4-1.3-.6-1.2-.2-2-.2c-.9 0-1.8.2-2.6.5s-1.5.8-2 1.4c-.6.6-1 1.4-1.3 2.3s-.5 1.9-.5 3 .2 2.1.5 3 .8 1.6 1.3 2.3c.6.6 1.2 1.1 2 1.4s1.6.5 2.5.5c.5 0 1 0 1.5-.1s.8-.2 1.2-.3.7-.3 1-.5.6-.5.9-.7c.4-.1.6-.2.7-.2z"/><path d="m79.6 27.9c.6-.6 1.2-1.1 1.8-1.4s1.4-.5 2.3-.5c.7 0 1.3.1 1.9.3.5.2 1 .6 1.3 1 .4.4.6.9.8 1.5s.3 1.3.3 2v8.2h-2.3v-8.2c0-1-.2-1.7-.7-2.3-.4-.5-1.1-.8-2-.8-.7 0-1.3.2-1.9.5s-1.1.8-1.6 1.3v9.5h-2.3v-18.7h2.3v7.6z"/><path d="m91.1 28c.7-.7 1.5-1.2 2.3-1.5s1.7-.5 2.7-.5c.7 0 1.4.1 1.9.4s1 .6 1.4 1 .7.9.9 1.5.3 1.3.3 2v8.2h-1c-.2 0-.4 0-.5-.1s-.2-.2-.3-.4l-.3-1.2c-.3.3-.7.6-1 .8s-.7.4-1 .6-.7.3-1.1.4-.8.1-1.3.1-1-.1-1.4-.2-.8-.3-1.2-.6c-.3-.3-.6-.6-.8-1.1-.2-.4-.3-.9-.3-1.5 0-.5.1-1 .4-1.5s.7-.9 1.4-1.3c.6-.4 1.4-.7 2.5-.9 1-.2 2.2-.4 3.7-.4v-1c0-1-.2-1.8-.6-2.3s-1.1-.8-1.9-.8c-.6 0-1 .1-1.4.2s-.7.3-1 .5-.5.3-.7.5c-.2.1-.4.2-.6.2s-.3 0-.4-.1-.2-.2-.3-.3zm7.4 5.3c-1 0-1.9.1-2.7.2-.7.1-1.3.3-1.8.5s-.8.5-1 .8-.3.6-.3 1c0 .3.1.6.2.9.1.2.3.4.5.6s.4.3.7.3c.3.1.5.1.8.1.4 0 .8 0 1.1-.1s.6-.2.9-.3c.3-.2.6-.3.8-.5.3-.2.5-.5.8-.7z"/><path d="m107 22.1c0 .2 0 .4-.1.6s-.2.4-.4.5-.3.3-.5.3c-.2.1-.4.1-.6.1s-.4 0-.6-.1-.4-.2-.5-.3-.3-.3-.3-.5-.1-.4-.1-.6 0-.4.1-.6.2-.4.3-.5.3-.3.5-.3c.2-.1.4-.1.6-.1s.4 0 .6.1.4.2.5.3.3.3.4.5c0 .2.1.4.1.6zm-.5 4.1v12.9h-2.3v-12.9z"/></svg>